<?xml version="1.0" standalone="no"?>
<!DOCTYPE svg PUBLIC "-//W3C//DTD SVG 20010904//EN"
 "http://www.w3.org/TR/2001/REC-SVG-20010904/DTD/svg10.dtd">
<svg version="1.0" xmlns="http://www.w3.org/2000/svg"
 width="512.000000pt" height="512.000000pt" viewBox="0 0 512.000000 512.000000"
 preserveAspectRatio="xMidYMid meet">

<g transform="translate(0.000000,512.000000) scale(0.100000,-0.100000)"
fill="#000000" stroke="none">
<path d="M340 5109 c-160 -31 -299 -173 -330 -339 -14 -73 -14 -3497 0 -3571
33 -172 184 -314 362 -339 35 -5 494 -10 1021 -10 l957 0 0 -210 0 -210 -317
0 c-175 0 -346 -4 -380 -9 -194 -28 -342 -176 -368 -369 l-7 -52 1282 0 1282
0 -7 52 c-27 194 -173 340 -367 368 -35 5 -206 10 -380 10 l-318 0 0 210 0
210 958 0 c526 0 985 5 1020 10 178 25 329 167 362 339 14 74 14 3498 0 3572
-32 169 -170 307 -340 339 -67 13 -4365 12 -4430 -1z m2590 -1177 c0 -16 -403
-1842 -416 -1884 -5 -16 -22 -18 -168 -18 l-163 0 208 938 c115 515 211 947
214 960 5 22 8 22 165 22 146 0 160 -2 160 -18z m-1308 -309 c60 -59 108 -112
108 -118 0 -6 -115 -125 -255 -265 l-255 -255 260 -260 260 -260 -113 -113
-113 -112 -321 322 c-310 312 -321 325 -331 373 -11 52 -3 115 20 159 11 21
618 636 627 636 3 0 54 -48 113 -107z m2305 -205 c332 -335 337 -342 336 -439
0 -25 -8 -61 -18 -80 -9 -19 -157 -175 -328 -346 l-312 -313 -112 112 -113
113 260 260 260 260 -255 255 c-140 140 -255 259 -255 265 0 10 210 225 220
225 3 0 146 -141 317 -312z"/>
</g>
</svg>
