<?xml version="1.0" standalone="no"?>
<!DOCTYPE svg PUBLIC "-//W3C//DTD SVG 20010904//EN"
 "http://www.w3.org/TR/2001/REC-SVG-20010904/DTD/svg10.dtd">
<svg version="1.0" xmlns="http://www.w3.org/2000/svg"
 width="595.000000pt" height="563.000000pt" viewBox="0 0 595.000000 563.000000"
 preserveAspectRatio="xMidYMid meet">

<g transform="translate(0.000000,563.000000) scale(0.100000,-0.100000)"
fill="#000000" stroke="none">
<path d="M4020 5299 c-25 -5 -71 -13 -102 -18 -32 -6 -83 -15 -113 -21 -30 -5
-80 -14 -110 -20 -30 -5 -79 -14 -107 -20 -29 -5 -104 -18 -166 -29 -105 -19
-308 -56 -358 -66 -15 -3 -26 -19 -37 -52 -52 -159 -120 -349 -127 -356 -4 -5
-46 -15 -91 -23 -46 -7 -111 -18 -144 -23 -33 -6 -134 -22 -225 -37 -91 -14
-203 -32 -250 -41 -47 -8 -112 -18 -145 -23 -33 -5 -87 -13 -120 -19 -33 -5
-95 -15 -137 -21 -47 -8 -82 -19 -91 -29 -8 -9 -35 -72 -61 -141 -26 -69 -51
-134 -56 -145 -5 -11 -21 -52 -36 -92 -14 -40 -34 -75 -43 -78 -14 -6 -75 -15
-231 -35 -146 -19 -215 -31 -224 -40 -5 -5 -186 -443 -401 -972 -253 -622
-389 -968 -384 -978 4 -9 83 -70 176 -136 162 -117 489 -352 617 -444 34 -25
114 -82 177 -127 62 -45 197 -142 299 -215 102 -74 250 -180 330 -237 80 -57
177 -127 215 -156 189 -139 179 -134 295 -140 58 -3 146 -7 195 -10 50 -3 160
-7 245 -10 85 -3 191 -7 235 -10 114 -7 275 -14 458 -20 86 -4 167 -8 178 -10
11 -2 84 -5 162 -6 78 -1 192 -5 252 -10 106 -7 219 -12 631 -25 183 -7 192
-6 197 12 12 47 64 268 107 462 6 23 14 61 20 85 25 111 40 179 60 262 11 50
25 110 31 135 6 25 14 61 19 80 5 19 13 55 19 80 11 52 22 101 51 225 27 117
48 209 61 265 6 25 14 61 19 80 5 19 13 55 19 80 6 25 20 86 31 135 42 180 57
246 80 350 16 73 28 125 50 220 12 50 28 119 36 155 8 36 19 81 24 100 9 33
15 62 26 120 5 26 6 24 -141 215 -34 45 -133 175 -220 290 -87 116 -180 237
-205 270 -26 33 -116 152 -201 265 -86 113 -188 248 -228 300 -40 52 -119 156
-174 230 -56 74 -104 137 -107 140 -3 3 -51 66 -108 142 -57 75 -109 138 -115
140 -7 2 -32 1 -57 -3z m-94 -196 c-4 -16 -26 -91 -50 -168 -24 -77 -58 -187
-76 -245 -17 -58 -35 -116 -40 -130 -5 -14 -25 -79 -45 -145 -20 -66 -40 -131
-45 -145 -4 -14 -24 -79 -45 -145 -20 -66 -49 -160 -65 -210 -15 -49 -46 -148
-68 -220 -22 -71 -57 -183 -77 -248 -20 -65 -42 -120 -48 -122 -7 -2 -43 -6
-82 -9 -173 -13 -213 -17 -255 -22 -45 -5 -72 -8 -205 -19 -38 -4 -83 -8 -100
-10 -59 -7 -155 -8 -161 -2 -3 3 1 25 9 49 30 85 199 574 217 628 10 30 48
141 85 245 100 289 153 441 185 535 55 164 92 265 98 272 6 6 131 29 582 109
36 7 81 15 100 20 19 4 48 7 64 8 26 1 28 -1 22 -26z m295 -220 c74 -98 140
-184 146 -193 141 -175 140 -173 109 -282 -9 -32 -22 -82 -30 -110 -13 -47
-54 -194 -87 -313 -6 -22 -15 -51 -19 -65 -10 -34 -23 -78 -75 -270 -45 -164
-60 -218 -77 -275 -4 -16 -33 -120 -63 -230 -30 -110 -59 -213 -64 -230 -4
-16 -14 -50 -21 -75 -7 -25 -14 -51 -16 -57 -2 -7 -7 -13 -12 -13 -8 0 -297
295 -434 444 -49 52 -55 72 -39 122 5 16 21 65 34 109 23 76 68 220 141 455
18 58 48 152 66 210 17 58 47 152 65 210 18 58 47 152 65 210 17 58 51 166 74
240 24 74 51 162 61 195 18 59 32 95 39 95 2 0 64 -80 137 -177z m-1389 -338
c5 -6 5 -6 -132 -405 -50 -146 -104 -303 -120 -350 -97 -289 -186 -539 -193
-547 -9 -8 -55 -14 -156 -20 l-104 -6 5 24 c3 13 22 69 43 124 20 55 41 111
45 125 5 14 23 63 40 110 56 146 68 118 -141 322 l-184 178 -65 -5 c-36 -3
-91 -8 -122 -11 -35 -4 -58 -3 -58 3 0 12 48 145 83 227 13 32 31 63 40 68 9
4 47 13 84 18 81 11 119 17 196 30 31 6 83 14 115 20 31 5 158 26 282 45 124
20 243 40 265 44 50 11 70 12 77 6z m1864 -287 c38 -51 74 -100 81 -108 56
-71 627 -823 636 -837 10 -17 3 -53 -78 -403 -26 -113 -50 -220 -54 -239 -12
-68 3 -82 -301 279 -152 181 -193 229 -217 256 -10 12 -36 43 -58 70 -22 27
-54 64 -71 84 -95 108 -214 256 -214 267 0 6 7 38 16 70 28 104 32 117 52 188
11 39 29 106 41 150 50 182 90 315 96 315 2 0 34 -42 71 -92z m-2924 -334 c4
-3 -2 -27 -12 -52 -10 -26 -39 -103 -65 -172 -68 -182 -100 -268 -270 -715
-73 -192 -102 -271 -160 -425 -26 -69 -50 -134 -55 -145 -5 -11 -29 -75 -55
-142 -26 -68 -50 -123 -53 -124 -40 -5 -113 -8 -312 -13 -129 -4 -252 -8 -272
-10 -46 -4 -63 6 -54 30 58 163 685 1685 696 1690 14 6 40 10 225 32 44 6 91
13 105 16 24 5 49 8 165 22 28 4 52 8 54 10 7 6 57 5 63 -2z m268 -139 l94
-95 -18 -47 c-29 -77 -87 -236 -96 -263 -22 -67 -60 -164 -67 -171 -11 -10
-49 -16 -163 -24 -52 -4 -99 -8 -105 -9 -18 -2 -6 54 33 157 22 56 61 158 87
227 25 69 50 134 55 145 5 11 21 55 37 97 15 43 33 78 38 78 6 0 53 -43 105
-95z m2410 -445 c35 -41 77 -91 94 -111 17 -19 52 -60 77 -90 26 -29 67 -78
93 -108 50 -60 50 -60 37 -105 -13 -41 -22 -78 -76 -296 -25 -102 -50 -202
-55 -222 -6 -21 -14 -55 -19 -75 -27 -108 -36 -133 -47 -133 -6 0 -31 21 -55
48 -23 26 -113 121 -198 210 -86 90 -157 168 -159 172 -2 5 6 42 18 82 11 40
25 89 30 108 5 19 23 82 39 140 16 58 46 164 66 235 67 240 65 236 80 228 7
-5 41 -42 75 -83z m-1133 -185 c4 -12 -25 -123 -57 -215 -5 -14 -25 -79 -45
-145 -20 -66 -40 -131 -45 -145 -5 -14 -18 -59 -31 -100 -12 -41 -30 -100 -40
-130 -9 -30 -27 -87 -39 -127 -11 -40 -25 -75 -31 -79 -6 -3 -95 -8 -197 -10
-103 -2 -227 -6 -277 -9 -49 -3 -187 -8 -305 -10 -118 -3 -249 -8 -290 -10
-41 -3 -165 -7 -275 -10 -110 -3 -244 -7 -297 -9 -95 -5 -98 -4 -98 17 0 12
13 56 29 97 33 84 83 218 196 520 42 113 82 210 88 217 7 6 41 13 77 14 36 1
81 6 100 10 19 4 80 10 135 13 55 3 114 8 130 10 17 3 68 7 115 10 47 3 96 8
110 10 14 3 70 7 125 11 55 4 107 8 115 10 8 2 60 6 115 10 55 4 107 9 115 10
8 2 58 6 110 10 52 4 105 8 117 10 12 2 60 6 105 10 106 8 192 16 195 19 9 9
45 2 50 -9z m538 -451 c177 -185 263 -275 481 -503 143 -150 136 -142 160
-173 l21 -27 -68 -268 c-38 -147 -85 -335 -106 -418 -20 -82 -40 -154 -44
-158 -7 -9 -54 30 -180 147 -72 67 -84 78 -314 286 -88 80 -166 151 -174 159
-8 7 -110 101 -228 208 -117 107 -214 200 -214 207 -3 24 3 53 21 106 10 30
35 109 55 175 54 177 114 370 141 455 13 41 24 78 24 82 0 4 10 33 21 65 l22
57 101 -105 c56 -58 182 -191 281 -295z m1150 -15 c55 -66 126 -150 157 -187
32 -37 58 -75 58 -85 0 -9 -11 -66 -25 -125 -14 -59 -30 -127 -36 -152 -6 -25
-14 -61 -19 -80 -5 -19 -13 -55 -19 -80 -24 -105 -66 -288 -102 -440 -11 -47
-24 -103 -29 -125 -20 -90 -65 -282 -101 -435 -11 -47 -24 -104 -30 -127 -13
-59 -30 -134 -36 -156 -5 -17 -6 -17 -31 -1 -15 10 -32 22 -38 28 -6 6 -81 76
-168 155 -178 163 -165 135 -126 286 40 151 233 912 240 945 10 46 168 669
175 691 4 10 11 16 18 13 7 -3 57 -60 112 -125z m-1912 -655 c18 -14 57 -49
87 -78 30 -28 121 -112 203 -185 136 -123 167 -160 135 -162 -7 0 -373 -2
-813 -5 l-800 -4 -80 61 c-44 33 -93 70 -109 82 -16 12 -64 49 -107 82 -42 33
-109 85 -148 115 -45 35 -66 57 -58 61 6 4 107 9 222 13 116 3 278 8 360 11
328 12 419 15 630 21 121 4 221 7 222 8 1 0 52 2 113 4 108 2 113 1 143 -24z
m-1932 -56 c10 -7 62 -47 116 -89 54 -41 139 -106 188 -144 604 -462 778 -597
782 -611 2 -7 -24 -10 -84 -8 -48 1 -165 3 -259 3 l-170 1 -165 118 c-90 65
-249 180 -354 255 -104 75 -278 200 -386 277 -187 134 -256 187 -248 194 2 2
112 7 244 11 132 4 241 8 243 10 7 7 76 -5 93 -17z m1565 -527 c27 -1 414
-320 414 -341 0 -6 -68 -8 -187 -4 -104 3 -241 7 -305 8 l-117 4 -83 63 c-124
94 -162 123 -168 129 -3 3 -40 32 -83 64 -43 33 -74 63 -70 67 11 11 414 17
599 10z m1095 -81 c52 -47 96 -87 99 -90 3 -3 77 -71 165 -150 88 -80 165
-149 171 -155 10 -10 128 -117 288 -263 121 -110 123 -106 -40 -97 -77 4 -159
8 -184 10 -25 2 -111 4 -192 5 -139 2 -150 3 -184 26 -31 21 -198 157 -214
174 -3 3 -27 24 -55 45 -27 22 -52 43 -55 46 -3 3 -115 97 -250 208 -135 112
-269 224 -299 250 -30 25 -58 49 -64 52 -32 21 30 26 361 25 l359 -1 94 -85z
m-816 -416 c171 -2 320 -7 332 -9 24 -6 319 -244 342 -277 15 -20 14 -20 -90
-14 -198 11 -315 16 -454 21 -77 2 -171 7 -210 9 -38 3 -140 8 -225 11 -85 2
-207 8 -270 11 l-115 7 -100 71 c-56 39 -133 94 -172 121 -40 28 -72 54 -73
59 0 5 152 6 363 2 199 -4 502 -9 672 -12z"/>
</g>
</svg>
